<svg width="814" height="70" viewBox="0 0 814 70" fill="none" xmlns="http://www.w3.org/2000/svg">
<rect width="814" height="70" rx="35" fill="#FFF5EB"/>
<path d="M103.616 45.884C100.651 45.884 98.1653 45.4573 96.16 44.604C94.1547 43.7293 92.6507 42.4493 91.648 40.764C90.6453 39.0573 90.144 36.9667 90.144 34.492C90.144 30.8653 91.296 28.0707 93.6 26.108C95.904 24.124 99.232 23.132 103.584 23.132C106.059 23.132 108.235 23.484 110.112 24.188C112.011 24.892 113.483 25.9053 114.528 27.228C115.595 28.5507 116.128 30.1507 116.128 32.028H111.36C111.36 30.9613 111.029 30.076 110.368 29.372C109.707 28.6467 108.789 28.1027 107.616 27.74C106.443 27.3773 105.067 27.196 103.488 27.196C101.781 27.196 100.299 27.4733 99.04 28.028C97.8027 28.5613 96.8427 29.34 96.16 30.364C95.4773 31.388 95.136 32.6253 95.136 34.076V34.876C95.136 36.348 95.4773 37.6067 96.16 38.652C96.8427 39.676 97.8133 40.4653 99.072 41.02C100.331 41.5533 101.813 41.82 103.52 41.82C105.163 41.82 106.571 41.6493 107.744 41.308C108.939 40.9453 109.856 40.412 110.496 39.708C111.157 38.9827 111.488 38.0973 111.488 37.052H116.16C116.16 38.8867 115.637 40.4653 114.592 41.788C113.547 43.1107 112.085 44.124 110.208 44.828C108.331 45.532 106.133 45.884 103.616 45.884ZM120.553 45.5V22.332H124.969V30.972H125.193C125.791 30.268 126.463 29.724 127.209 29.34C127.956 28.9347 128.735 28.6573 129.545 28.508C130.356 28.3373 131.145 28.252 131.913 28.252C133.492 28.252 134.804 28.4973 135.849 28.988C136.916 29.4787 137.716 30.2253 138.249 31.228C138.783 32.2307 139.049 33.5107 139.049 35.068V45.5H134.633V35.836C134.633 35.1107 134.527 34.5027 134.313 34.012C134.121 33.5 133.833 33.0947 133.449 32.796C133.087 32.4973 132.639 32.284 132.105 32.156C131.593 32.028 131.017 31.964 130.377 31.964C129.439 31.964 128.553 32.156 127.721 32.54C126.911 32.924 126.249 33.4573 125.737 34.14C125.225 34.8227 124.969 35.6227 124.969 36.54V45.5H120.553ZM149.828 45.884C148.825 45.884 147.886 45.7987 147.012 45.628C146.158 45.4787 145.401 45.2227 144.74 44.86C144.1 44.476 143.598 43.964 143.236 43.324C142.873 42.684 142.692 41.884 142.692 40.924C142.692 39.5587 143.065 38.492 143.812 37.724C144.558 36.956 145.614 36.4013 146.98 36.06C148.345 35.7187 149.934 35.5053 151.748 35.42C153.582 35.3347 155.566 35.292 157.7 35.292V34.588C157.7 33.8627 157.518 33.2867 157.156 32.86C156.814 32.4333 156.27 32.1347 155.524 31.964C154.798 31.772 153.838 31.676 152.644 31.676C151.684 31.676 150.841 31.74 150.116 31.868C149.39 31.996 148.825 32.188 148.42 32.444C148.014 32.7 147.812 33.02 147.812 33.404V33.788H143.396C143.374 33.7027 143.353 33.6173 143.332 33.532C143.332 33.4467 143.332 33.3507 143.332 33.244C143.332 32.2413 143.694 31.3667 144.42 30.62C145.145 29.8733 146.222 29.2973 147.652 28.892C149.081 28.4653 150.862 28.252 152.996 28.252C154.98 28.252 156.644 28.4333 157.988 28.796C159.353 29.1587 160.377 29.756 161.06 30.588C161.764 31.42 162.116 32.54 162.116 33.948V41.212C162.116 41.6173 162.19 41.9267 162.34 42.14C162.51 42.3533 162.798 42.46 163.204 42.46H164.836V45.34C164.622 45.4253 164.228 45.532 163.652 45.66C163.097 45.8093 162.478 45.884 161.796 45.884C160.857 45.884 160.121 45.7667 159.588 45.532C159.076 45.2973 158.702 44.9773 158.468 44.572C158.254 44.1667 158.105 43.7187 158.02 43.228H157.764C157.166 43.7827 156.452 44.2627 155.62 44.668C154.788 45.0733 153.881 45.372 152.9 45.564C151.918 45.7773 150.894 45.884 149.828 45.884ZM150.916 42.46C151.598 42.46 152.324 42.3853 153.092 42.236C153.881 42.0867 154.628 41.8733 155.332 41.596C156.036 41.2973 156.601 40.9347 157.028 40.508C157.476 40.06 157.7 39.548 157.7 38.972V38.108C155.31 38.108 153.326 38.1933 151.748 38.364C150.19 38.5133 149.028 38.78 148.26 39.164C147.492 39.548 147.108 40.092 147.108 40.796C147.108 41.2653 147.289 41.6173 147.652 41.852C148.036 42.0867 148.516 42.2467 149.092 42.332C149.689 42.4173 150.297 42.46 150.916 42.46ZM174.028 45.884C172.79 45.884 171.788 45.7133 171.02 45.372C170.252 45.0307 169.686 44.4653 169.324 43.676C168.982 42.8653 168.812 41.7667 168.812 40.38V32.06H165.58V28.636H168.94L169.836 23.708H173.228V28.636H177.804V32.06H173.228V40.06C173.228 40.8493 173.366 41.4467 173.644 41.852C173.942 42.2573 174.593 42.46 175.596 42.46H177.804V45.34C177.505 45.4467 177.121 45.5427 176.652 45.628C176.204 45.7133 175.745 45.7773 175.276 45.82C174.806 45.8627 174.39 45.884 174.028 45.884ZM191.741 45.5V28.636H195.293L195.613 31.516H195.901C196.498 30.684 197.181 30.0333 197.949 29.564C198.717 29.0947 199.527 28.764 200.381 28.572C201.255 28.3587 202.098 28.252 202.909 28.252C204.487 28.252 205.799 28.5187 206.845 29.052C207.89 29.564 208.647 30.3853 209.117 31.516H209.405C210.023 30.684 210.717 30.0333 211.485 29.564C212.274 29.0947 213.095 28.764 213.949 28.572C214.823 28.3587 215.677 28.252 216.509 28.252C218.002 28.252 219.25 28.4973 220.253 28.988C221.277 29.4787 222.045 30.2253 222.557 31.228C223.069 32.2307 223.325 33.5107 223.325 35.068V45.5H218.909V35.836C218.909 35.1107 218.813 34.5027 218.621 34.012C218.429 33.5 218.151 33.0947 217.789 32.796C217.447 32.4973 217.031 32.284 216.541 32.156C216.05 32.028 215.506 31.964 214.909 31.964C214.013 31.964 213.17 32.156 212.381 32.54C211.591 32.924 210.951 33.4573 210.461 34.14C209.97 34.8227 209.725 35.6227 209.725 36.54V45.5H205.341V35.836C205.341 35.1107 205.245 34.5027 205.053 34.012C204.861 33.5 204.583 33.0947 204.221 32.796C203.879 32.4973 203.463 32.284 202.973 32.156C202.482 32.028 201.927 31.964 201.309 31.964C200.413 31.964 199.57 32.156 198.781 32.54C197.991 32.924 197.351 33.4573 196.861 34.14C196.391 34.8227 196.157 35.6227 196.157 36.54V45.5H191.741ZM237.597 45.884C235.421 45.884 233.543 45.5747 231.965 44.956C230.407 44.316 229.202 43.3453 228.349 42.044C227.495 40.7427 227.069 39.0893 227.069 37.084C227.069 35.1213 227.485 33.4893 228.317 32.188C229.149 30.8653 230.343 29.884 231.901 29.244C233.458 28.5827 235.303 28.252 237.437 28.252C239.677 28.252 241.554 28.5827 243.069 29.244C244.605 29.884 245.757 30.8333 246.525 32.092C247.293 33.3293 247.677 34.844 247.677 36.636V38.172H231.709C231.773 39.2173 232.05 40.06 232.541 40.7C233.053 41.3187 233.746 41.7667 234.621 42.044C235.517 42.3213 236.551 42.46 237.725 42.46C238.194 42.46 238.717 42.4067 239.293 42.3C239.89 42.1933 240.455 42.0333 240.989 41.82C241.543 41.6067 242.013 41.3293 242.397 40.988C242.781 40.6253 243.005 40.188 243.069 39.676H247.549C247.549 40.5293 247.325 41.34 246.877 42.108C246.45 42.8547 245.81 43.516 244.957 44.092C244.103 44.6467 243.058 45.084 241.821 45.404C240.583 45.724 239.175 45.884 237.597 45.884ZM231.709 35.228H243.005C243.005 34.6093 242.855 34.076 242.557 33.628C242.279 33.18 241.885 32.8173 241.373 32.54C240.861 32.2413 240.274 32.028 239.613 31.9C238.951 31.7507 238.247 31.676 237.501 31.676C236.413 31.676 235.442 31.8147 234.589 32.092C233.757 32.348 233.095 32.7427 232.605 33.276C232.114 33.8093 231.815 34.46 231.709 35.228ZM259.521 45.884C257.772 45.884 256.247 45.564 254.945 44.924C253.665 44.284 252.663 43.3133 251.937 42.012C251.233 40.6893 250.881 39.0467 250.881 37.084C250.881 35.0787 251.233 33.4253 251.937 32.124C252.641 30.8227 253.612 29.852 254.849 29.212C256.108 28.572 257.569 28.252 259.233 28.252C260.129 28.252 260.983 28.348 261.793 28.54C262.604 28.732 263.34 29.02 264.001 29.404C264.663 29.7667 265.228 30.2253 265.697 30.78H265.921V22.332H270.337V45.5H266.785L266.401 42.844H266.145C265.356 43.9533 264.396 44.7427 263.265 45.212C262.135 45.66 260.887 45.884 259.521 45.884ZM260.641 42.172C261.751 42.172 262.7 41.98 263.489 41.596C264.279 41.212 264.887 40.6573 265.313 39.932C265.74 39.1853 265.953 38.2787 265.953 37.212V36.956C265.953 36.1453 265.825 35.4307 265.569 34.812C265.335 34.1933 264.983 33.6813 264.513 33.276C264.044 32.8493 263.479 32.5293 262.817 32.316C262.156 32.0813 261.409 31.964 260.577 31.964C259.511 31.964 258.583 32.156 257.793 32.54C257.025 32.924 256.428 33.4787 256.001 34.204C255.596 34.908 255.393 35.7827 255.393 36.828V37.308C255.393 38.3533 255.607 39.2387 256.033 39.964C256.46 40.6893 257.057 41.244 257.825 41.628C258.615 41.9907 259.553 42.172 260.641 42.172ZM294.78 45.884C292.625 45.884 290.769 45.5533 289.212 44.892C287.676 44.2307 286.492 43.2493 285.66 41.948C284.849 40.6253 284.444 38.9933 284.444 37.052C284.444 35.0893 284.849 33.4573 285.66 32.156C286.492 30.8547 287.676 29.884 289.212 29.244C290.769 28.5827 292.625 28.252 294.78 28.252C296.934 28.252 298.78 28.5827 300.316 29.244C301.873 29.884 303.057 30.8547 303.868 32.156C304.7 33.4573 305.116 35.0893 305.116 37.052C305.116 38.9933 304.7 40.6253 303.868 41.948C303.057 43.2493 301.873 44.2307 300.316 44.892C298.78 45.5533 296.934 45.884 294.78 45.884ZM294.78 42.46C295.974 42.46 296.998 42.268 297.852 41.884C298.726 41.4787 299.388 40.9027 299.836 40.156C300.305 39.388 300.54 38.46 300.54 37.372V36.732C300.54 35.6227 300.305 34.6947 299.836 33.948C299.388 33.2013 298.726 32.636 297.852 32.252C296.998 31.868 295.974 31.676 294.78 31.676C293.585 31.676 292.55 31.868 291.676 32.252C290.822 32.636 290.161 33.2013 289.692 33.948C289.244 34.6947 289.02 35.6227 289.02 36.732V37.372C289.02 38.46 289.244 39.388 289.692 40.156C290.161 40.9027 290.822 41.4787 291.676 41.884C292.55 42.268 293.585 42.46 294.78 42.46ZM317.311 45.884C316.073 45.884 314.889 45.7773 313.759 45.564C312.628 45.372 311.625 45.0733 310.751 44.668C309.897 44.2627 309.215 43.74 308.703 43.1C308.212 42.4387 307.967 41.66 307.967 40.764C307.967 40.6573 307.967 40.5613 307.967 40.476C307.988 40.3907 308.009 40.3053 308.031 40.22H312.543C312.543 40.2413 312.532 40.284 312.511 40.348C312.511 40.412 312.511 40.4653 312.511 40.508C312.511 41.0413 312.735 41.468 313.183 41.788C313.652 42.108 314.249 42.3427 314.975 42.492C315.721 42.62 316.511 42.684 317.343 42.684C318.175 42.684 318.964 42.6413 319.711 42.556C320.479 42.4493 321.097 42.268 321.567 42.012C322.036 41.7347 322.271 41.3293 322.271 40.796C322.271 40.2413 322.015 39.8467 321.503 39.612C320.991 39.356 320.244 39.164 319.263 39.036C318.303 38.8867 317.129 38.716 315.743 38.524C314.719 38.3747 313.769 38.1827 312.895 37.948C312.041 37.7133 311.284 37.4147 310.623 37.052C309.983 36.668 309.481 36.188 309.119 35.612C308.777 35.0147 308.607 34.2893 308.607 33.436C308.607 32.5187 308.809 31.74 309.215 31.1C309.641 30.4387 310.239 29.9053 311.007 29.5C311.796 29.0733 312.745 28.764 313.855 28.572C314.964 28.3587 316.212 28.252 317.599 28.252C318.836 28.252 319.967 28.3587 320.991 28.572C322.036 28.764 322.943 29.0627 323.711 29.468C324.479 29.8733 325.076 30.3747 325.503 30.972C325.951 31.5693 326.175 32.252 326.175 33.02C326.175 33.1053 326.175 33.1907 326.175 33.276C326.175 33.34 326.164 33.4147 326.143 33.5H321.631V33.372C321.631 32.9027 321.439 32.5293 321.055 32.252C320.671 31.9747 320.169 31.772 319.551 31.644C318.953 31.516 318.292 31.452 317.567 31.452C317.311 31.452 316.927 31.4627 316.415 31.484C315.924 31.5053 315.412 31.5693 314.879 31.676C314.367 31.7613 313.929 31.9107 313.567 32.124C313.204 32.316 313.023 32.604 313.023 32.988C313.023 33.4573 313.289 33.8093 313.823 34.044C314.356 34.2787 315.049 34.46 315.903 34.588C316.777 34.6947 317.716 34.8227 318.719 34.972C319.807 35.1213 320.831 35.292 321.791 35.484C322.772 35.676 323.625 35.9533 324.351 36.316C325.076 36.6787 325.641 37.18 326.047 37.82C326.473 38.4387 326.687 39.26 326.687 40.284C326.687 41.3293 326.473 42.2147 326.047 42.94C325.641 43.644 325.033 44.22 324.223 44.668C323.433 45.0947 322.452 45.404 321.279 45.596C320.127 45.788 318.804 45.884 317.311 45.884ZM340.553 25.884V22.332H344.969V25.884H340.553ZM340.553 45.5V28.636H344.969V45.5H340.553ZM367.74 45.884C365.991 45.884 364.465 45.564 363.164 44.924C361.884 44.284 360.881 43.3133 360.156 42.012C359.452 40.6893 359.1 39.0467 359.1 37.084C359.1 35.0787 359.452 33.4253 360.156 32.124C360.86 30.8227 361.831 29.852 363.068 29.212C364.327 28.572 365.788 28.252 367.452 28.252C368.348 28.252 369.201 28.348 370.012 28.54C370.823 28.732 371.559 29.02 372.22 29.404C372.881 29.7667 373.447 30.2253 373.916 30.78H374.14V22.332H378.556V45.5H375.004L374.62 42.844H374.364C373.575 43.9533 372.615 44.7427 371.484 45.212C370.353 45.66 369.105 45.884 367.74 45.884ZM368.86 42.172C369.969 42.172 370.919 41.98 371.708 41.596C372.497 41.212 373.105 40.6573 373.532 39.932C373.959 39.1853 374.172 38.2787 374.172 37.212V36.956C374.172 36.1453 374.044 35.4307 373.788 34.812C373.553 34.1933 373.201 33.6813 372.732 33.276C372.263 32.8493 371.697 32.5293 371.036 32.316C370.375 32.0813 369.628 31.964 368.796 31.964C367.729 31.964 366.801 32.156 366.012 32.54C365.244 32.924 364.647 33.4787 364.22 34.204C363.815 34.908 363.612 35.7827 363.612 36.828V37.308C363.612 38.3533 363.825 39.2387 364.252 39.964C364.679 40.6893 365.276 41.244 366.044 41.628C366.833 41.9907 367.772 42.172 368.86 42.172ZM389.453 45.884C388.45 45.884 387.511 45.7987 386.637 45.628C385.783 45.4787 385.026 45.2227 384.365 44.86C383.725 44.476 383.223 43.964 382.861 43.324C382.498 42.684 382.317 41.884 382.317 40.924C382.317 39.5587 382.69 38.492 383.437 37.724C384.183 36.956 385.239 36.4013 386.605 36.06C387.97 35.7187 389.559 35.5053 391.373 35.42C393.207 35.3347 395.191 35.292 397.325 35.292V34.588C397.325 33.8627 397.143 33.2867 396.781 32.86C396.439 32.4333 395.895 32.1347 395.149 31.964C394.423 31.772 393.463 31.676 392.269 31.676C391.309 31.676 390.466 31.74 389.741 31.868C389.015 31.996 388.45 32.188 388.045 32.444C387.639 32.7 387.437 33.02 387.437 33.404V33.788H383.021C382.999 33.7027 382.978 33.6173 382.957 33.532C382.957 33.4467 382.957 33.3507 382.957 33.244C382.957 32.2413 383.319 31.3667 384.045 30.62C384.77 29.8733 385.847 29.2973 387.277 28.892C388.706 28.4653 390.487 28.252 392.621 28.252C394.605 28.252 396.269 28.4333 397.613 28.796C398.978 29.1587 400.002 29.756 400.685 30.588C401.389 31.42 401.741 32.54 401.741 33.948V41.212C401.741 41.6173 401.815 41.9267 401.965 42.14C402.135 42.3533 402.423 42.46 402.829 42.46H404.461V45.34C404.247 45.4253 403.853 45.532 403.277 45.66C402.722 45.8093 402.103 45.884 401.421 45.884C400.482 45.884 399.746 45.7667 399.213 45.532C398.701 45.2973 398.327 44.9773 398.093 44.572C397.879 44.1667 397.73 43.7187 397.645 43.228H397.389C396.791 43.7827 396.077 44.2627 395.245 44.668C394.413 45.0733 393.506 45.372 392.525 45.564C391.543 45.7773 390.519 45.884 389.453 45.884ZM390.541 42.46C391.223 42.46 391.949 42.3853 392.717 42.236C393.506 42.0867 394.253 41.8733 394.957 41.596C395.661 41.2973 396.226 40.9347 396.653 40.508C397.101 40.06 397.325 39.548 397.325 38.972V38.108C394.935 38.108 392.951 38.1933 391.373 38.364C389.815 38.5133 388.653 38.78 387.885 39.164C387.117 39.548 386.733 40.092 386.733 40.796C386.733 41.2653 386.914 41.6173 387.277 41.852C387.661 42.0867 388.141 42.2467 388.717 42.332C389.314 42.4173 389.922 42.46 390.541 42.46ZM410.549 51.836C409.567 51.836 408.65 51.708 407.797 51.452C406.965 51.196 406.293 50.7693 405.781 50.172C405.269 49.5747 405.013 48.764 405.013 47.74C405.013 46.9293 405.301 46.204 405.877 45.564C406.474 44.924 407.231 44.4547 408.149 44.156C407.487 43.8147 406.997 43.3667 406.677 42.812C406.378 42.236 406.229 41.6173 406.229 40.956C406.229 40.1027 406.517 39.356 407.093 38.716C407.69 38.076 408.501 37.6813 409.525 37.532C408.671 37.0627 407.999 36.4867 407.509 35.804C407.018 35.1213 406.773 34.3853 406.773 33.596C406.773 32.316 407.125 31.2813 407.829 30.492C408.554 29.7027 409.61 29.1373 410.997 28.796C412.405 28.4333 414.133 28.252 416.181 28.252C416.97 28.252 417.717 28.2947 418.421 28.38C419.125 28.444 419.786 28.54 420.405 28.668C421.429 28.2413 422.207 27.7613 422.741 27.228C423.295 26.6733 423.626 26.1613 423.733 25.692H427.861C427.839 26.46 427.658 27.132 427.317 27.708C426.975 28.284 426.495 28.764 425.877 29.148C425.279 29.532 424.543 29.82 423.669 30.012C424.287 30.4387 424.757 30.9507 425.077 31.548C425.418 32.1453 425.589 32.828 425.589 33.596C425.589 34.7907 425.269 35.7827 424.629 36.572C423.989 37.3613 423.039 37.948 421.781 38.332C420.543 38.716 418.997 38.908 417.141 38.908H412.693C412.074 38.908 411.594 39.0253 411.253 39.26C410.911 39.4733 410.741 39.7827 410.741 40.188C410.741 40.5933 410.911 40.924 411.253 41.18C411.594 41.4147 412.127 41.532 412.853 41.532H422.613C424.234 41.532 425.471 42.0013 426.325 42.94C427.199 43.8787 427.637 45.0627 427.637 46.492C427.637 47.5587 427.359 48.4867 426.805 49.276C426.25 50.0867 425.514 50.716 424.597 51.164C423.679 51.612 422.655 51.836 421.525 51.836H410.549ZM411.317 48.732H421.301C421.642 48.732 421.951 48.6573 422.229 48.508C422.527 48.38 422.762 48.1773 422.933 47.9C423.103 47.6227 423.189 47.3027 423.189 46.94C423.189 46.3853 422.997 45.9587 422.613 45.66C422.25 45.3613 421.813 45.212 421.301 45.212H411.477C410.901 45.212 410.421 45.3507 410.037 45.628C409.653 45.9267 409.461 46.3533 409.461 46.908C409.461 47.4627 409.631 47.9 409.973 48.22C410.335 48.5613 410.783 48.732 411.317 48.732ZM416.181 35.868C417.695 35.868 418.901 35.708 419.797 35.388C420.693 35.068 421.141 34.4707 421.141 33.596C421.141 32.7213 420.693 32.124 419.797 31.804C418.901 31.4627 417.695 31.292 416.181 31.292C414.666 31.292 413.461 31.4627 412.565 31.804C411.669 32.124 411.221 32.7213 411.221 33.596C411.221 34.2147 411.423 34.6947 411.829 35.036C412.234 35.356 412.81 35.58 413.557 35.708C414.303 35.8147 415.178 35.868 416.181 35.868ZM441.935 45.5V32.06H438.479V28.636H441.935V27.164C441.935 26.076 442.138 25.148 442.543 24.38C442.949 23.5907 443.557 22.9933 444.367 22.588C445.178 22.1827 446.191 21.98 447.407 21.98C447.834 21.98 448.271 22.0013 448.719 22.044C449.189 22.0867 449.637 22.1507 450.063 22.236C450.49 22.3 450.874 22.396 451.215 22.524V25.404H449.039C448.058 25.404 447.365 25.5427 446.959 25.82C446.554 26.0973 446.351 26.5667 446.351 27.228V28.636H451.215V32.06H446.351V45.5H441.935ZM454.022 45.5V28.636H457.574L457.894 31.612H458.15C458.385 31.0147 458.726 30.46 459.174 29.948C459.622 29.436 460.177 29.0307 460.838 28.732C461.521 28.412 462.289 28.252 463.142 28.252C463.526 28.252 463.899 28.284 464.262 28.348C464.646 28.3907 464.987 28.4653 465.286 28.572V32.444H463.078C462.225 32.444 461.499 32.5933 460.902 32.892C460.326 33.1693 459.857 33.5533 459.494 34.044C459.131 34.5347 458.865 35.0787 458.694 35.676C458.523 36.252 458.438 36.8493 458.438 37.468V45.5H454.022ZM473.953 45.884C472.95 45.884 472.011 45.7987 471.137 45.628C470.283 45.4787 469.526 45.2227 468.865 44.86C468.225 44.476 467.723 43.964 467.361 43.324C466.998 42.684 466.817 41.884 466.817 40.924C466.817 39.5587 467.19 38.492 467.937 37.724C468.683 36.956 469.739 36.4013 471.105 36.06C472.47 35.7187 474.059 35.5053 475.873 35.42C477.707 35.3347 479.691 35.292 481.825 35.292V34.588C481.825 33.8627 481.643 33.2867 481.281 32.86C480.939 32.4333 480.395 32.1347 479.649 31.964C478.923 31.772 477.963 31.676 476.769 31.676C475.809 31.676 474.966 31.74 474.241 31.868C473.515 31.996 472.95 32.188 472.545 32.444C472.139 32.7 471.937 33.02 471.937 33.404V33.788H467.521C467.499 33.7027 467.478 33.6173 467.457 33.532C467.457 33.4467 467.457 33.3507 467.457 33.244C467.457 32.2413 467.819 31.3667 468.545 30.62C469.27 29.8733 470.347 29.2973 471.777 28.892C473.206 28.4653 474.987 28.252 477.121 28.252C479.105 28.252 480.769 28.4333 482.113 28.796C483.478 29.1587 484.502 29.756 485.185 30.588C485.889 31.42 486.241 32.54 486.241 33.948V41.212C486.241 41.6173 486.315 41.9267 486.465 42.14C486.635 42.3533 486.923 42.46 487.329 42.46H488.961V45.34C488.747 45.4253 488.353 45.532 487.777 45.66C487.222 45.8093 486.603 45.884 485.921 45.884C484.982 45.884 484.246 45.7667 483.713 45.532C483.201 45.2973 482.827 44.9773 482.593 44.572C482.379 44.1667 482.23 43.7187 482.145 43.228H481.889C481.291 43.7827 480.577 44.2627 479.745 44.668C478.913 45.0733 478.006 45.372 477.025 45.564C476.043 45.7773 475.019 45.884 473.953 45.884ZM475.041 42.46C475.723 42.46 476.449 42.3853 477.217 42.236C478.006 42.0867 478.753 41.8733 479.457 41.596C480.161 41.2973 480.726 40.9347 481.153 40.508C481.601 40.06 481.825 39.548 481.825 38.972V38.108C479.435 38.108 477.451 38.1933 475.873 38.364C474.315 38.5133 473.153 38.78 472.385 39.164C471.617 39.548 471.233 40.092 471.233 40.796C471.233 41.2653 471.414 41.6173 471.777 41.852C472.161 42.0867 472.641 42.2467 473.217 42.332C473.814 42.4173 474.422 42.46 475.041 42.46ZM501.619 45.5V41.66H508.787V29.276H501.619V26.588C502.835 26.5027 503.987 26.3427 505.075 26.108C506.184 25.8733 507.251 25.5427 508.275 25.116C509.299 24.668 510.28 24.1133 511.219 23.452H513.203V41.66H519.859V45.5H501.619ZM533.04 45.884C530.694 45.884 528.71 45.6387 527.088 45.148C525.488 44.636 524.283 43.9107 523.472 42.972C522.662 42.0333 522.256 40.9133 522.256 39.612C522.256 38.3107 522.662 37.2227 523.472 36.348C524.283 35.452 525.403 34.7587 526.832 34.268C525.531 33.6067 524.592 32.8707 524.016 32.06C523.44 31.2493 523.152 30.332 523.152 29.308C523.152 28.0707 523.536 26.9933 524.304 26.076C525.094 25.1373 526.224 24.412 527.696 23.9C529.168 23.388 530.95 23.132 533.04 23.132C535.131 23.132 536.912 23.388 538.384 23.9C539.856 24.412 540.976 25.1373 541.744 26.076C542.534 26.9933 542.928 28.0707 542.928 29.308C542.928 30.332 542.64 31.2493 542.064 32.06C541.488 32.8707 540.55 33.6067 539.248 34.268C540.699 34.7587 541.819 35.452 542.608 36.348C543.419 37.2227 543.824 38.3107 543.824 39.612C543.824 40.9133 543.419 42.0333 542.608 42.972C541.798 43.9107 540.592 44.636 538.992 45.148C537.392 45.6387 535.408 45.884 533.04 45.884ZM533.04 42.46C535.067 42.46 536.603 42.1827 537.648 41.628C538.694 41.052 539.216 40.2733 539.216 39.292C539.216 38.2253 538.694 37.404 537.648 36.828C536.603 36.252 535.067 35.964 533.04 35.964C531.014 35.964 529.478 36.252 528.432 36.828C527.387 37.404 526.864 38.2253 526.864 39.292C526.864 40.2733 527.387 41.052 528.432 41.628C529.499 42.1827 531.035 42.46 533.04 42.46ZM533.04 32.604C534.832 32.604 536.251 32.3373 537.296 31.804C538.342 31.2707 538.864 30.492 538.864 29.468C538.864 28.5293 538.352 27.8147 537.328 27.324C536.326 26.812 534.896 26.556 533.04 26.556C531.184 26.556 529.744 26.812 528.72 27.324C527.718 27.8147 527.216 28.5293 527.216 29.468C527.216 30.492 527.739 31.2707 528.784 31.804C529.83 32.3373 531.248 32.604 533.04 32.604ZM547.774 33.628V28.636H553.086V33.628H547.774ZM547.774 45.5V40.508H553.086V45.5H547.774ZM567.598 45.884C565.209 45.884 563.214 45.6173 561.614 45.084C560.036 44.5293 558.852 43.772 558.062 42.812C557.273 41.8307 556.878 40.7213 556.878 39.484V38.972H561.294V39.42C561.294 40.38 561.796 41.1267 562.798 41.66C563.801 42.1933 565.22 42.46 567.054 42.46C569.145 42.46 570.734 42.1613 571.822 41.564C572.91 40.9453 573.454 40.0707 573.454 38.94C573.454 38.1507 573.209 37.5427 572.718 37.116C572.249 36.6893 571.609 36.4013 570.798 36.252C570.009 36.0813 569.145 35.996 568.206 35.996H564.558V32.7H567.95C568.761 32.7 569.529 32.604 570.254 32.412C571.001 32.22 571.609 31.9 572.078 31.452C572.569 30.9827 572.814 30.3747 572.814 29.628C572.814 28.988 572.58 28.444 572.11 27.996C571.662 27.5267 571.033 27.1747 570.222 26.94C569.433 26.684 568.526 26.556 567.502 26.556C566.5 26.556 565.572 26.684 564.718 26.94C563.886 27.1747 563.214 27.516 562.702 27.964C562.19 28.3907 561.934 28.9027 561.934 29.5V29.916H557.646V29.244C557.646 28.092 558.052 27.0573 558.862 26.14C559.694 25.2227 560.868 24.4973 562.382 23.964C563.918 23.4093 565.732 23.132 567.822 23.132C569.764 23.132 571.438 23.388 572.846 23.9C574.276 24.3907 575.374 25.084 576.142 25.98C576.932 26.8547 577.326 27.8893 577.326 29.084C577.326 29.98 577.124 30.7587 576.718 31.42C576.334 32.0813 575.812 32.6253 575.15 33.052C574.51 33.4787 573.806 33.7987 573.038 34.012V34.14C574.553 34.4173 575.758 34.9613 576.654 35.772C577.572 36.5827 578.03 37.8413 578.03 39.548C578.03 40.7853 577.614 41.884 576.782 42.844C575.972 43.804 574.788 44.5507 573.23 45.084C571.694 45.6173 569.817 45.884 567.598 45.884ZM591.878 45.884C590.065 45.884 588.497 45.6387 587.174 45.148C585.873 44.6573 584.795 43.932 583.942 42.972C583.089 41.9907 582.459 40.796 582.054 39.388C581.649 37.98 581.446 36.348 581.446 34.492C581.446 32.636 581.649 31.004 582.054 29.596C582.459 28.188 583.078 27.004 583.91 26.044C584.763 25.084 585.841 24.3587 587.142 23.868C588.465 23.3773 590.033 23.132 591.846 23.132C593.659 23.132 595.217 23.3773 596.518 23.868C597.841 24.3587 598.929 25.084 599.782 26.044C600.635 27.004 601.265 28.188 601.67 29.596C602.075 31.004 602.278 32.636 602.278 34.492C602.278 36.348 602.075 37.98 601.67 39.388C601.265 40.796 600.635 41.9907 599.782 42.972C598.95 43.932 597.873 44.6573 596.55 45.148C595.249 45.6387 593.691 45.884 591.878 45.884ZM591.878 42.46C593.286 42.46 594.417 42.1933 595.27 41.66C596.123 41.1053 596.742 40.2947 597.126 39.228C597.531 38.14 597.734 36.7853 597.734 35.164V33.788C597.734 32.1667 597.531 30.8227 597.126 29.756C596.742 28.6893 596.123 27.8893 595.27 27.356C594.417 26.8227 593.286 26.556 591.878 26.556C590.491 26.556 589.361 26.8227 588.486 27.356C587.633 27.8893 587.003 28.6893 586.598 29.756C586.214 30.8227 586.022 32.1667 586.022 33.788V35.164C586.022 36.7853 586.214 38.14 586.598 39.228C587.003 40.2947 587.633 41.1053 588.486 41.66C589.361 42.1933 590.491 42.46 591.878 42.46ZM606.85 38.812V34.652H616.962V38.812H606.85ZM621.572 45.5V44.252C621.572 43.1853 621.806 42.2253 622.276 41.372C622.745 40.4973 623.364 39.708 624.132 39.004C624.921 38.3 625.796 37.6493 626.756 37.052C627.737 36.4547 628.729 35.9 629.732 35.388C631.012 34.7267 632.217 34.0973 633.348 33.5C634.478 32.9027 635.396 32.284 636.1 31.644C636.825 31.004 637.188 30.3 637.188 29.532C637.188 28.9347 636.996 28.4227 636.612 27.996C636.228 27.548 635.652 27.2067 634.884 26.972C634.137 26.7373 633.188 26.62 632.036 26.62C630.713 26.62 629.614 26.7907 628.74 27.132C627.886 27.452 627.257 27.8893 626.852 28.444C626.446 28.9987 626.244 29.6173 626.244 30.3V31.196H621.86C621.838 31.0253 621.817 30.876 621.796 30.748C621.774 30.62 621.764 30.46 621.764 30.268C621.764 28.732 622.201 27.4413 623.076 26.396C623.972 25.3293 625.22 24.5187 626.82 23.964C628.441 23.4093 630.329 23.132 632.484 23.132C633.849 23.132 635.108 23.26 636.26 23.516C637.412 23.772 638.404 24.1667 639.236 24.7C640.089 25.212 640.74 25.8627 641.188 26.652C641.657 27.4413 641.892 28.3693 641.892 29.436C641.892 30.524 641.657 31.4947 641.188 32.348C640.718 33.18 640.089 33.9373 639.3 34.62C638.532 35.2813 637.668 35.8787 636.708 36.412C635.748 36.924 634.777 37.404 633.796 37.852C632.836 38.2787 631.918 38.684 631.044 39.068C630.169 39.452 629.401 39.836 628.74 40.22C628.078 40.604 627.577 41.02 627.236 41.468H642.116V45.5H621.572ZM658.242 45.5V40.508H644.706V36.956C645.73 35.676 646.711 34.2893 647.65 32.796C648.61 31.3027 649.484 29.7453 650.274 28.124C651.063 26.4813 651.714 24.8173 652.226 23.132H657.09C656.876 24.0707 656.535 25.0627 656.066 26.108C655.596 27.1533 655.052 28.2093 654.434 29.276C653.815 30.3213 653.164 31.3347 652.482 32.316C651.799 33.2973 651.127 34.1933 650.466 35.004C649.826 35.7933 649.25 36.444 648.738 36.956H658.242V31.004C658.476 30.556 658.7 30.108 658.914 29.66C659.148 29.1907 659.372 28.732 659.586 28.284C659.799 27.8147 659.991 27.3667 660.162 26.94C660.354 26.5133 660.514 26.108 660.642 25.724H662.658V36.956H666.626V40.508H662.658V45.5H658.242ZM669.836 33.628V28.636H675.148V33.628H669.836ZM669.836 45.5V40.508H675.148V45.5H669.836ZM689.597 45.884C687.783 45.884 686.215 45.6387 684.893 45.148C683.591 44.6573 682.514 43.932 681.661 42.972C680.807 41.9907 680.178 40.796 679.773 39.388C679.367 37.98 679.165 36.348 679.165 34.492C679.165 32.636 679.367 31.004 679.773 29.596C680.178 28.188 680.797 27.004 681.629 26.044C682.482 25.084 683.559 24.3587 684.861 23.868C686.183 23.3773 687.751 23.132 689.565 23.132C691.378 23.132 692.935 23.3773 694.237 23.868C695.559 24.3587 696.647 25.084 697.501 26.044C698.354 27.004 698.983 28.188 699.389 29.596C699.794 31.004 699.997 32.636 699.997 34.492C699.997 36.348 699.794 37.98 699.389 39.388C698.983 40.796 698.354 41.9907 697.501 42.972C696.669 43.932 695.591 44.6573 694.269 45.148C692.967 45.6387 691.41 45.884 689.597 45.884ZM689.597 42.46C691.005 42.46 692.135 42.1933 692.989 41.66C693.842 41.1053 694.461 40.2947 694.845 39.228C695.25 38.14 695.453 36.7853 695.453 35.164V33.788C695.453 32.1667 695.25 30.8227 694.845 29.756C694.461 28.6893 693.842 27.8893 692.989 27.356C692.135 26.8227 691.005 26.556 689.597 26.556C688.21 26.556 687.079 26.8227 686.205 27.356C685.351 27.8893 684.722 28.6893 684.317 29.756C683.933 30.8227 683.741 32.1667 683.741 33.788V35.164C683.741 36.7853 683.933 38.14 684.317 39.228C684.722 40.2947 685.351 41.1053 686.205 41.66C687.079 42.1933 688.21 42.46 689.597 42.46ZM713.816 45.884C712.002 45.884 710.434 45.6387 709.112 45.148C707.81 44.6573 706.733 43.932 705.88 42.972C705.026 41.9907 704.397 40.796 703.992 39.388C703.586 37.98 703.384 36.348 703.384 34.492C703.384 32.636 703.586 31.004 703.992 29.596C704.397 28.188 705.016 27.004 705.848 26.044C706.701 25.084 707.778 24.3587 709.08 23.868C710.402 23.3773 711.97 23.132 713.784 23.132C715.597 23.132 717.154 23.3773 718.456 23.868C719.778 24.3587 720.866 25.084 721.72 26.044C722.573 27.004 723.202 28.188 723.608 29.596C724.013 31.004 724.216 32.636 724.216 34.492C724.216 36.348 724.013 37.98 723.608 39.388C723.202 40.796 722.573 41.9907 721.72 42.972C720.888 43.932 719.81 44.6573 718.488 45.148C717.186 45.6387 715.629 45.884 713.816 45.884ZM713.816 42.46C715.224 42.46 716.354 42.1933 717.208 41.66C718.061 41.1053 718.68 40.2947 719.064 39.228C719.469 38.14 719.672 36.7853 719.672 35.164V33.788C719.672 32.1667 719.469 30.8227 719.064 29.756C718.68 28.6893 718.061 27.8893 717.208 27.356C716.354 26.8227 715.224 26.556 713.816 26.556C712.429 26.556 711.298 26.8227 710.424 27.356C709.57 27.8893 708.941 28.6893 708.536 29.756C708.152 30.8227 707.96 32.1667 707.96 33.788V35.164C707.96 36.7853 708.152 38.14 708.536 39.228C708.941 40.2947 709.57 41.1053 710.424 41.66C711.298 42.1933 712.429 42.46 713.816 42.46Z" fill="#273AAA"/>
</svg>
