<?xml version="1.0" encoding="UTF-8"?><svg id="Layer_1" xmlns="http://www.w3.org/2000/svg" width="20.64mm" height="40.2mm" viewBox="0 0 58.52 113.96"><defs><style>.cls-1{fill:#000;stroke-width:0px;}</style></defs><path class="cls-1" d="M0,62.99v-22.78h16.59c.3-5.89.38-11.17.86-16.4C18.88,8.16,26.92.54,42.67.02c4.48-.15,8.97.41,13.87.66v16.48c-2.93,0-5.72-.14-8.5.03-4.59.28-7.61,2.62-7.85,7.38-.25,4.93-.05,9.89-.05,15.35h18.38c-.42,4.32-.74,8.08-1.18,11.84-.42,3.6-.95,7.18-1.48,11.08h-15.95v51.12h-22.97v-50.97H0Z"/></svg>