<?xml version="1.0" encoding="UTF-8"?><svg id="Layer_1" xmlns="http://www.w3.org/2000/svg" width="69.39mm" height="6.51mm" viewBox="0 0 196.71 18.46"><defs><style>.cls-1{fill:#1d1d1b;stroke-width:0px;}</style></defs><path class="cls-1" d="M8.76,18.46c-2.81,0-4.97-.75-6.5-2.24-1.51-1.51-2.26-3.84-2.26-6.99,0-2.1.36-3.82,1.09-5.17.73-1.37,1.79-2.38,3.17-3.04,1.39-.68,3.05-1.01,4.99-1.01,1.16,0,2.25.13,3.28.39,1.02.26,1.92.66,2.7,1.2.8.54,1.41,1.21,1.85,2.03.45.8.68,1.75.68,2.86h-3.93c0-.54-.12-1.01-.36-1.43-.23-.42-.55-.76-.96-1.04-.42-.28-.89-.49-1.43-.62-.54-.14-1.1-.21-1.69-.21-.9,0-1.69.12-2.37.36-.68.23-1.24.58-1.69,1.07-.43.47-.76,1.06-.99,1.77-.23.71-.34,1.53-.34,2.47v.78c0,1.3.19,2.37.57,3.2.38.83.95,1.46,1.72,1.87.76.4,1.71.6,2.83.6.94,0,1.76-.14,2.47-.42.73-.29,1.29-.71,1.69-1.25.42-.54.62-1.2.62-1.98v-.18h-5.33v-2.96h9.18v9.65h-2.55l-.34-1.92c-.52.5-1.08.92-1.69,1.25-.59.33-1.25.57-1.98.73-.73.17-1.54.26-2.44.26ZM22.02,18.15V.31h3.87v17.84h-3.87ZM30.36,18.15V.31h9.78c1.32,0,2.41.23,3.28.7.88.47,1.54,1.13,1.98,1.98.43.83.65,1.79.65,2.89,0,1.16-.26,2.19-.78,3.09-.52.88-1.27,1.56-2.26,2.03l3.64,7.15h-4.29l-3.15-6.5h-4.97v6.5h-3.87ZM34.23,8.58h5.38c.78,0,1.39-.23,1.82-.7.43-.49.65-1.14.65-1.95,0-.52-.1-.96-.29-1.33-.19-.38-.47-.67-.83-.86-.36-.19-.81-.29-1.35-.29h-5.38v5.12ZM49.87,18.15V.31h3.87v14.53h9v3.3h-12.87ZM67.71,18.15V3.56h-5.72V.31h15.37v3.25h-5.75v14.59h-3.9ZM76.48,18.15L83.35.31h4.78l6.86,17.84h-4.19l-1.27-3.51h-7.77l-1.27,3.51h-4ZM82.88,11.52h5.54l-1.59-4.39c-.07-.19-.16-.42-.26-.68-.09-.28-.18-.58-.29-.91-.1-.33-.21-.65-.31-.96-.09-.33-.17-.62-.26-.88h-.16c-.09.33-.2.72-.34,1.17-.14.43-.28.86-.42,1.27-.14.4-.25.73-.34.99l-1.59,4.39ZM97.64,18.15V.31h3.87v14.53h9v3.3h-12.87ZM113.52,18.15V.31h3.87v8.11L124.99.31h4.78l-6.81,7.25,6.94,10.58h-4.63l-4.99-7.9-2.89,2.6v5.3h-3.87Z"/><path class="cls-1" d="M163.5,18.15V.31h6.24c1.91,0,3.53.31,4.86.94,1.35.61,2.38,1.57,3.09,2.89.71,1.3,1.07,3,1.07,5.1s-.36,3.78-1.07,5.1c-.71,1.32-1.74,2.29-3.09,2.91-1.34.61-2.96.91-4.86.91h-6.24ZM165.16,16.67h4.47c1.13,0,2.14-.12,3.04-.36.9-.24,1.67-.64,2.31-1.2.66-.57,1.16-1.31,1.51-2.21.35-.92.52-2.04.52-3.35v-.52c0-1.37-.17-2.51-.52-3.43-.35-.92-.84-1.66-1.48-2.21-.64-.57-1.42-.98-2.34-1.22-.9-.24-1.92-.36-3.04-.36h-4.47v14.87ZM182.46,18.15V.31h1.66v10.45L194.21.31h2.16l-6.68,7.02,7.02,10.82h-2.03l-6.24-9.57-4.32,4.24v5.33h-1.66Z"/><path class="cls-1" d="M149.23,4.14c-1.1-.25-2.47.05-3.26,1.25-.79-1.2-2.16-1.51-3.26-1.25-1.25.29-2.52,1.38-2.52,3.18,0,3.28,5.42,6.31,5.65,6.44.04.02.08.03.12.03s.08-.01.12-.03c.23-.13,5.65-3.15,5.65-6.44,0-1.8-1.26-2.89-2.52-3.18Z"/></svg>