<?xml version="1.0" encoding="UTF-8"?><svg id="Layer_1" xmlns="http://www.w3.org/2000/svg" width="38.51mm" height="38.64mm" viewBox="0 0 109.15 109.54"><defs><style>.cls-1{fill:#000;stroke-width:0px;}</style></defs><path class="cls-1" d="M109.15,56.49c-.45,8.76-.69,14.92-1.1,21.07-1.31,19.81-9.43,29.79-29.18,31.25-18.01,1.34-36.29.65-54.34-.63-13.37-.95-23.18-11.56-23.73-24.84C.01,64.42-.49,45.39.73,26.53,1.69,11.75,12.95,2.47,27.83,1.33c18.63-1.42,37.32-2.42,55.84.85,14.6,2.57,22.76,11.75,24.04,26.48.88,10.11,1.07,20.27,1.44,27.83ZM8.47,54.35c.44.01.88.02,1.32.03,0,8.15-.35,16.32.08,24.45.63,11.76,6.43,19.46,16.93,20,17.59.9,35.29.93,52.88.14,10.66-.48,17.41-6.65,17.84-16.23.81-18.24.77-36.56.03-54.8-.37-9.17-6.89-16.01-15.47-16.34-18.6-.72-37.26-.74-55.85-.04-8.34.32-14.32,6.01-15.56,14.5-1.37,9.34-1.53,18.86-2.21,28.3Z"/><path class="cls-1" d="M54.62,27.26c15.4.21,27.36,12.74,27.18,28.47-.17,14.99-13,27.55-28.02,27.44-15.1-.11-28.07-13.2-27.97-28.24.1-15.48,13.02-27.89,28.81-27.68ZM71.93,55.27c.02-10.31-7.52-18.06-17.7-18.18-10.29-.12-18.61,8.02-18.5,18.11.11,10.03,8.54,18.2,18.67,18.1,9.61-.1,17.51-8.23,17.53-18.03Z"/><path class="cls-1" d="M82.33,32.32c-3.15-.17-5.39-2.29-5.57-6.19-.19-4.07,2.43-6.06,6.06-6.6,3.04-.46,6.7,2.95,6.85,5.97.18,3.57-2.87,6.77-7.33,6.83Z"/></svg>