<?xml version="1.0" encoding="UTF-8"?><svg id="Layer_1" xmlns="http://www.w3.org/2000/svg" width="123.53mm" height="17.65mm" viewBox="0 0 350.17 50.03"><defs><style>.cls-1{fill:#f04f5e;}.cls-1,.cls-2,.cls-3{stroke-width:0px;}.cls-2{fill:#fff5ec;}.cls-3{fill:#1d1d1b;}</style></defs><path class="cls-2" d="M25.01,0h300.14c13.82,0,25.01,11.2,25.01,25.01h0c0,13.82-11.2,25.01-25.01,25.01H25.01C11.2,50.03,0,38.83,0,25.01h0C0,11.2,11.2,0,25.01,0Z"/><path class="cls-1" d="M25.07,5.05h130.07c11.08,0,20.05,8.98,20.05,20.05h0c0,11.08-8.98,20.05-20.05,20.05H25.07c-11.08,0-20.05-8.98-20.05-20.05h0C5.01,14.03,13.99,5.05,25.07,5.05Z"/><path class="cls-2" d="M59.55,30.61v-10.98h7.84v1.54h-6.05v3.25h5.47v1.52h-5.47v4.67h-1.79ZM72.23,30.8c-.87,0-1.62-.15-2.22-.46-.6-.32-1.05-.81-1.36-1.46-.3-.65-.45-1.48-.45-2.48s.15-1.84.45-2.48c.31-.65.76-1.13,1.36-1.44.61-.32,1.35-.48,2.22-.48s1.64.16,2.24.48c.6.31,1.05.79,1.34,1.44.31.64.46,1.47.46,2.48s-.15,1.83-.46,2.48c-.3.65-.75,1.14-1.34,1.46-.6.31-1.34.46-2.24.46ZM72.23,29.42c.53,0,.97-.1,1.31-.3.34-.21.59-.53.75-.96.17-.43.26-.97.26-1.62v-.29c0-.65-.09-1.19-.26-1.62-.16-.43-.41-.74-.75-.94-.34-.21-.78-.32-1.31-.32s-.95.11-1.3.32c-.34.2-.6.52-.77.94-.16.43-.24.97-.24,1.62v.29c0,.65.08,1.19.24,1.62.17.43.43.75.77.96.34.2.77.3,1.3.3ZM77.98,30.61v-8.42h1.38l.14,1.36h.1c.1-.27.22-.52.37-.75.16-.23.36-.43.61-.58.26-.15.57-.22.93-.22.17,0,.32.02.45.05.14.03.25.06.32.08v1.57h-.56c-.34,0-.65.05-.91.16-.26.11-.47.27-.66.48-.17.2-.3.45-.38.75-.07.3-.11.63-.11,1.01v4.51h-1.66ZM89.12,30.8c-.81,0-1.47-.21-1.97-.64-.5-.44-.75-1.18-.75-2.22v-5.74h1.66v5.49c0,.32.04.59.11.8.09.21.2.38.35.51.15.13.33.22.53.27.2.05.43.08.67.08.38,0,.73-.09,1.04-.27.32-.19.58-.45.77-.78.19-.34.29-.73.29-1.17v-4.93h1.66v8.42h-1.36l-.14-1.2h-.11c-.2.31-.44.57-.72.77-.28.2-.59.36-.93.46-.33.11-.7.16-1.1.16ZM95.63,30.61v-8.42h1.38l.14,1.2h.11c.2-.31.44-.57.72-.77.28-.2.58-.36.91-.46.34-.11.71-.16,1.12-.16.53,0,1,.1,1.41.29.41.18.72.48.94.9.24.42.35.98.35,1.68v5.74h-1.66v-5.49c0-.32-.04-.59-.13-.8-.07-.21-.19-.38-.34-.51-.15-.13-.32-.22-.53-.27-.2-.05-.43-.08-.67-.08-.38,0-.74.1-1.06.29-.31.18-.56.44-.75.77-.19.33-.29.72-.29,1.17v4.93h-1.66ZM106.21,33.52c-.38,0-.75-.08-1.09-.24-.33-.16-.6-.39-.8-.69-.2-.3-.3-.66-.3-1.09,0-.47.13-.85.38-1.14.27-.3.58-.52.93-.67-.26-.12-.46-.29-.62-.51-.15-.22-.22-.48-.22-.77,0-.39.14-.71.43-.96.29-.25.62-.41,1.01-.48-.37-.25-.67-.55-.88-.93-.2-.37-.3-.79-.3-1.26,0-.57.13-1.05.4-1.46.27-.42.66-.74,1.18-.98.53-.23,1.18-.35,1.94-.35.33,0,.64.03.93.08.3.04.57.11.8.19.37-.19.64-.42.8-.69.16-.28.26-.53.29-.77h1.63c0,.35-.07.67-.22.96-.14.28-.34.51-.59.7-.25.18-.54.31-.9.38.27.25.46.53.59.86.14.32.21.67.21,1.06,0,.55-.13,1.04-.38,1.46-.26.42-.64.74-1.17.98-.51.23-1.15.35-1.9.35h-1.31c-.26,0-.46.05-.62.16-.15.11-.22.27-.22.48,0,.18.07.33.22.45.15.12.35.18.59.18h3.55c.62,0,1.13.21,1.54.62.41.41.61.93.61,1.57,0,.47-.12.89-.37,1.26-.23.38-.57.68-1.01.9-.43.22-.92.34-1.49.34h-3.62ZM106.76,32.29h3.06c.22,0,.43-.04.61-.13.18-.09.33-.21.43-.37.11-.15.16-.32.16-.51,0-.32-.1-.57-.3-.75-.19-.18-.43-.27-.72-.27h-3.23c-.3,0-.55.1-.75.3-.2.19-.3.43-.3.72s.1.54.29.72c.2.19.46.29.77.29ZM108.28,26.37c.63,0,1.1-.14,1.41-.42.31-.29.46-.68.46-1.17s-.15-.89-.46-1.15c-.31-.28-.78-.42-1.41-.42s-1.1.14-1.41.42c-.31.27-.46.65-.46,1.15,0,.32.06.6.19.85.14.23.35.42.62.54.29.13.64.19,1.06.19ZM117.47,30.8c-.86,0-1.59-.15-2.18-.46-.58-.32-1.01-.81-1.31-1.46-.3-.65-.45-1.48-.45-2.48s.15-1.84.45-2.48c.3-.65.74-1.13,1.33-1.44.59-.32,1.32-.48,2.19-.48.8,0,1.47.15,2,.46.54.3.96.76,1.23,1.38.28.62.42,1.4.42,2.34v.64h-5.9c.02.6.11,1.1.27,1.5.16.39.4.69.72.88.33.18.75.27,1.25.27.31,0,.59-.04.83-.11.25-.09.45-.2.62-.35.17-.16.3-.35.4-.56.1-.22.14-.47.14-.75h1.63c0,.5-.08.94-.26,1.33-.17.38-.42.71-.75.98-.32.26-.7.45-1.15.59-.45.14-.94.21-1.49.21ZM115.27,25.6h4.13c0-.42-.05-.76-.14-1.04-.08-.29-.21-.52-.38-.7-.17-.18-.37-.31-.61-.38-.24-.09-.5-.13-.8-.13-.45,0-.83.08-1.15.24-.31.16-.55.41-.72.75-.17.33-.28.75-.32,1.26Z"/><path class="cls-3" d="M217.18,30.61v-10.98h7.84v1.54h-6.05v3.25h5.47v1.52h-5.47v4.67h-1.79ZM229.87,30.8c-.88,0-1.62-.15-2.22-.46-.6-.32-1.05-.81-1.36-1.46-.3-.65-.45-1.48-.45-2.48s.15-1.84.45-2.48c.31-.65.76-1.13,1.36-1.44.61-.32,1.35-.48,2.22-.48s1.64.16,2.24.48c.6.31,1.04.79,1.34,1.44.31.64.46,1.47.46,2.48s-.15,1.83-.46,2.48c-.3.65-.75,1.14-1.34,1.46-.6.31-1.34.46-2.24.46ZM229.87,29.42c.53,0,.97-.1,1.31-.3.34-.21.59-.53.75-.96.17-.43.26-.97.26-1.62v-.29c0-.65-.09-1.19-.26-1.62-.16-.43-.41-.74-.75-.94-.34-.21-.78-.32-1.31-.32s-.96.11-1.3.32c-.34.2-.6.52-.77.94-.16.43-.24.97-.24,1.62v.29c0,.65.08,1.19.24,1.62.17.43.43.75.77.96.34.2.77.3,1.3.3ZM235.61,30.61v-8.42h1.38l.14,1.36h.1c.1-.27.22-.52.37-.75.16-.23.36-.43.61-.58.26-.15.57-.22.93-.22.17,0,.32.02.45.05.14.03.24.06.32.08v1.57h-.56c-.34,0-.65.05-.91.16-.26.11-.47.27-.66.48-.17.2-.3.45-.38.75-.07.3-.11.63-.11,1.01v4.51h-1.66ZM244.48,30.61v-7.04h-1.23v-1.38h1.23v-1.22c0-.35.05-.68.16-.99.12-.31.32-.57.59-.77.29-.2.69-.3,1.22-.3.15,0,.3.01.45.03.16.01.31.03.45.06.14.03.26.07.37.11v1.17h-.82c-.26,0-.45.06-.58.19-.12.13-.18.31-.18.56v1.15h1.57v1.38h-1.57v7.04h-1.66ZM252.3,30.8c-.87,0-1.62-.15-2.22-.46-.6-.32-1.05-.81-1.36-1.46-.3-.65-.45-1.48-.45-2.48s.15-1.84.45-2.48c.31-.65.76-1.13,1.36-1.44.61-.32,1.35-.48,2.22-.48s1.64.16,2.24.48c.6.31,1.05.79,1.34,1.44.31.64.46,1.47.46,2.48s-.15,1.83-.46,2.48c-.3.65-.75,1.14-1.34,1.46-.6.31-1.34.46-2.24.46ZM252.3,29.42c.53,0,.97-.1,1.31-.3.34-.21.59-.53.75-.96.17-.43.26-.97.26-1.62v-.29c0-.65-.09-1.19-.26-1.62-.16-.43-.41-.74-.75-.94-.34-.21-.78-.32-1.31-.32s-.95.11-1.3.32c-.34.2-.6.52-.77.94-.16.43-.24.97-.24,1.62v.29c0,.65.08,1.19.24,1.62.17.43.43.75.77.96.34.2.77.3,1.3.3ZM258.05,30.61v-8.42h1.38l.14,1.36h.1c.1-.27.22-.52.37-.75.16-.23.36-.43.61-.58.26-.15.57-.22.93-.22.17,0,.32.02.45.05.14.03.25.06.32.08v1.57h-.56c-.34,0-.65.05-.91.16-.26.11-.47.27-.66.48-.17.2-.3.45-.38.75-.07.3-.11.63-.11,1.01v4.51h-1.66ZM265.94,30.8c-.3,0-.62-.03-.98-.1-.35-.06-.69-.18-1.01-.35-.31-.17-.57-.41-.77-.7-.19-.31-.29-.71-.29-1.2,0-.58.14-1.05.42-1.42.28-.37.67-.66,1.17-.86.5-.21,1.1-.36,1.79-.45.69-.09,1.45-.13,2.27-.13v-.85c0-.28-.05-.52-.16-.74-.1-.21-.27-.38-.53-.5-.26-.12-.63-.18-1.12-.18s-.84.06-1.1.18c-.27.11-.45.25-.56.42-.1.16-.14.34-.14.53v.24h-1.6c-.01-.05-.02-.11-.02-.16v-.19c0-.5.14-.92.43-1.26.29-.35.69-.62,1.22-.8.52-.18,1.13-.27,1.82-.27s1.26.1,1.73.29c.47.18.84.44,1.1.78.32-.36.71-.63,1.18-.8.47-.18,1.01-.27,1.62-.27.79,0,1.45.15,1.98.46.54.3.95.75,1.22,1.36.28.61.42,1.39.42,2.34v.64h-5.81c.02.61.11,1.11.26,1.5.15.39.38.69.7.88.33.19.74.29,1.23.29.3,0,.57-.04.8-.11.25-.09.45-.2.62-.35.18-.16.32-.35.4-.56.1-.22.14-.47.14-.75h1.63c0,.5-.09.94-.27,1.33-.17.38-.42.71-.74.98-.32.26-.7.45-1.15.59-.44.14-.93.21-1.47.21-.71,0-1.33-.11-1.86-.34-.51-.23-.92-.59-1.23-1.06-.27.33-.58.6-.93.8-.34.2-.71.35-1.12.45-.4.1-.84.14-1.31.14ZM266.11,29.46c.35,0,.67-.05.96-.14.3-.1.55-.24.77-.43.22-.19.39-.42.51-.67.13-.27.19-.57.19-.9v-.51c-.77,0-1.45.04-2.05.13-.6.07-1.06.22-1.39.45-.32.21-.48.52-.48.93,0,.26.06.47.18.64.12.17.29.3.51.38.22.09.49.13.8.13ZM270.26,25.58h4.05c0-.42-.05-.76-.14-1.04-.1-.29-.23-.52-.4-.7-.16-.18-.36-.31-.59-.38-.23-.07-.49-.11-.77-.11-.45,0-.83.08-1.14.24-.31.15-.54.39-.7.72-.16.33-.26.76-.3,1.28ZM277.72,30.61v-11.57h1.66v11.57h-1.66ZM284.43,30.8c-.68,0-1.27-.15-1.78-.46-.5-.31-.89-.79-1.17-1.44-.27-.65-.4-1.49-.4-2.53s.14-1.84.42-2.48c.28-.64.66-1.11,1.15-1.42.49-.31,1.06-.46,1.7-.46.37,0,.72.04,1.04.13.32.09.6.22.85.4.26.18.47.41.64.69h.11v-4.18h1.66v11.57h-1.36l-.16-1.15h-.11c-.28.45-.65.78-1.1,1.01-.45.22-.94.34-1.49.34ZM284.89,29.36c.49,0,.89-.11,1.18-.32.31-.22.54-.54.69-.96.15-.43.22-.94.22-1.55v-.22c0-.51-.05-.95-.14-1.31-.1-.36-.24-.66-.42-.88-.18-.23-.4-.41-.66-.51-.26-.11-.54-.16-.86-.16-.49,0-.89.1-1.2.3-.31.19-.54.5-.69.91-.14.42-.21.95-.21,1.62v.29c0,.66.07,1.2.22,1.62.15.41.37.7.67.9.31.19.7.29,1.18.29ZM290.8,30.61v-8.42h1.38l.14,1.36h.1c.1-.27.22-.52.37-.75.16-.23.36-.43.61-.58.26-.15.57-.22.93-.22.17,0,.32.02.45.05.14.03.25.06.32.08v1.57h-.56c-.34,0-.65.05-.91.16-.26.11-.47.27-.66.48-.17.2-.3.45-.38.75-.07.3-.11.63-.11,1.01v4.51h-1.66ZM299.66,30.8c-.86,0-1.59-.15-2.18-.46-.58-.32-1.01-.81-1.31-1.46-.3-.65-.45-1.48-.45-2.48s.15-1.84.45-2.48c.3-.65.74-1.13,1.33-1.44.59-.32,1.32-.48,2.19-.48.8,0,1.47.15,2,.46.54.3.95.76,1.23,1.38.28.62.42,1.4.42,2.34v.64h-5.9c.02.6.11,1.1.27,1.5.16.39.4.69.72.88.33.18.75.27,1.25.27.31,0,.59-.04.83-.11.25-.09.45-.2.62-.35.17-.16.3-.35.4-.56.1-.22.14-.47.14-.75h1.63c0,.5-.08.94-.26,1.33-.17.38-.42.71-.75.98-.32.26-.7.45-1.15.59-.45.14-.94.21-1.49.21ZM297.47,25.6h4.13c0-.42-.05-.76-.14-1.04-.09-.29-.21-.52-.38-.7-.17-.18-.37-.31-.61-.38-.23-.09-.5-.13-.8-.13-.45,0-.83.08-1.15.24-.31.16-.55.41-.72.75-.17.33-.28.75-.32,1.26Z"/></svg>