<?xml version="1.0" encoding="UTF-8"?><svg id="Layer_1" xmlns="http://www.w3.org/2000/svg" width="36.12mm" height="36.08mm" viewBox="0 0 102.39 102.27"><defs><style>.cls-1{fill:#000;stroke-width:0px;}</style></defs><path class="cls-1" d="M81.83,102.23c0-11.92.03-22.89-.02-33.86-.01-2.32-.02-4.69-.5-6.94-1.53-7.27-5.66-10.5-12.56-10.13-6.67.36-11.68,4.8-11.99,11.7-.49,10.64-.38,21.3-.51,31.95-.03,2.14,0,4.29,0,6.87h-20.19V36.07h19.77c.22,1.73.44,3.49.74,5.84,1.05-.86,1.88-1.45,2.61-2.16,7.8-7.61,17.02-9.46,27.16-6.16,10.23,3.33,15.15,11.09,15.5,21.49.5,14.63.53,29.28.55,43.92,0,1.07-1.64,3.03-2.59,3.08-5.78.29-11.58.14-17.97.14Z"/><path class="cls-1" d="M25.34,101.92H.19V36.14h25.15v65.78Z"/><path class="cls-1" d="M12.07,24.97C5.35,24.77-.06,19.11,0,12.35.06,5.67,6.41-.34,13.03.02c7.1.38,12.05,5.98,11.77,13.31-.27,7.03-5.55,11.87-12.73,11.65Z"/></svg>