<svg width="1506" height="208" viewBox="0 0 1506 208" fill="none" xmlns="http://www.w3.org/2000/svg">
<g clip-path="url(#clip0_481_278)">
<path d="M1488.84 176.541C1474.46 172.478 1456.85 172.079 1441.91 175.463C1426.97 178.848 1414.94 185.966 1409.83 194.442C1417.17 183.919 1408.11 170.731 1390.02 165.539C1381.09 162.983 1370.55 162.564 1360.81 163.902C1361.92 160.238 1362.25 156.504 1361.53 152.83C1358.91 139.642 1345.07 127.571 1326.31 119.325C1307.54 111.078 1284.19 106.426 1260.48 104.459C1240.22 102.782 1218.91 103.051 1200.04 107.454C1198.52 107.814 1197.06 108.243 1195.58 108.652C1198.18 100.715 1195.2 92.0594 1185.37 86.169C1171.3 77.7328 1146.92 76.9142 1127.51 80.9576C1101.92 86.2888 1082 99.2477 1076.61 114.083C1073.79 121.811 1075.05 129.888 1079.64 137.335C1079.1 137.445 1078.55 137.555 1078.03 137.665C1072.2 135.399 1065.65 133.711 1058.67 132.883C1051.2 131.994 1043.42 132.064 1035.95 132.963C1049.2 116.869 1049.22 97.6004 1035.92 81.5266C1019.28 61.4295 983.556 47.4224 944.998 41.6219C906.439 35.8213 865.319 37.4587 826.345 42.2908C798.992 45.6852 771.548 50.8568 750.167 60.8904C748.218 61.8089 746.342 62.7873 744.501 63.8056C743.653 55.7388 740.225 47.8117 733.531 40.6135C718.032 23.9507 687.683 12.8389 655.873 6.41939C611.288 -2.5759 558.601 -3.14497 518.87 11.2116C492.256 20.8358 473.654 36.4104 464.379 53.2429C458.046 64.7441 455.881 76.8043 456.53 88.8546C443.305 84.4419 428.383 81.5666 412.992 80.7679C387.425 79.44 360.63 83.7829 341.793 93.4272C325.157 101.943 315.288 114.383 315.252 126.932C315.252 131.116 316.406 135.279 318.463 139.302C304.155 139.023 289.811 140.92 277.794 145.242C253.327 154.048 241.599 172.758 252.641 187.653C252.533 187.673 252.443 187.693 252.335 187.713C248.87 184.558 244.269 181.703 238.243 180.155C231.747 178.478 223.447 178.558 217.89 181.074C212.333 183.59 210.817 188.721 215.689 191.647C211.431 187.873 202.247 186.066 194.632 187.503C192.882 187.833 191.276 188.342 189.815 188.961C188.371 181.903 183.626 175.024 175.994 169.303C163.345 159.809 143.426 153.519 122.351 151.742C106.888 150.444 90.5587 151.532 76.8098 155.645C63.0608 159.759 52.1807 167.057 49.0051 175.523C45.8295 183.989 51.0259 193.464 63.151 198.925C56.2043 197.637 49.1494 196.329 41.8419 196.159C34.5344 195.99 26.7758 197.098 21.6876 200.003C18.945 201.58 17.2669 203.737 16.9602 205.903C11.1503 205.764 5.28621 206.512 0.0175781 207.96H1481.17C1482.29 207.71 1483.41 207.461 1484.47 207.171C1495.39 204.116 1504.63 198.815 1504.88 192.505C1505.33 191.846 1505.66 191.157 1505.84 190.439C1507.33 184.508 1498.48 179.217 1488.84 176.501V176.541Z" fill="#F5DBE5"/>
</g>
<defs>
<clipPath id="clip0_481_278">
<rect width="1506" height="208" fill="white"/>
</clipPath>
</defs>
</svg>
