<svg width="1506" height="208" viewBox="0 0 1506 208" fill="none" xmlns="http://www.w3.org/2000/svg">
<g clip-path="url(#clip0_486_283)">
<path d="M17.1597 31.4588C31.5401 35.5222 49.1504 35.9215 64.0902 32.5371C79.03 29.1526 91.0649 22.0342 96.1711 13.5581C88.8275 24.0809 97.8852 37.2693 115.983 42.4608C124.914 45.0166 135.451 45.436 145.195 44.0981C144.076 47.7622 143.751 51.496 144.473 55.17C147.089 68.3585 160.928 80.4288 179.693 88.6753C198.458 96.9218 221.806 101.574 245.515 103.541C265.778 105.218 287.087 104.949 305.96 100.546C307.476 100.186 308.937 99.7571 310.417 99.3478C307.819 107.285 310.796 115.941 320.63 121.831C334.703 130.267 359.08 131.086 378.494 127.043C404.08 121.711 423.999 108.752 429.394 93.9167C432.209 86.1893 430.946 78.1125 426.363 70.6647C426.904 70.5549 427.446 70.4451 427.969 70.3352C433.797 72.6015 440.347 74.2888 447.329 75.1174C454.799 76.006 462.576 75.9361 470.046 75.0376C456.802 91.1312 456.784 110.4 470.082 126.473C486.718 146.571 522.444 160.578 561.002 166.378C599.56 172.179 640.681 170.541 679.655 165.709C707.008 162.315 734.452 157.143 755.833 147.11C757.782 146.191 759.658 145.213 761.499 144.194C762.347 152.261 765.775 160.188 772.469 167.387C787.968 184.049 818.317 195.161 850.127 201.581C894.712 210.576 947.399 211.145 987.13 196.788C1013.74 187.164 1032.35 171.59 1041.62 154.757C1047.95 143.256 1050.12 131.196 1049.47 119.145C1062.7 123.558 1077.62 126.433 1093.01 127.232C1118.58 128.56 1145.37 124.217 1164.21 114.573C1180.84 106.057 1190.71 93.6171 1190.75 81.0676C1190.75 76.8845 1189.59 72.7213 1187.54 68.6978C1201.84 68.9774 1216.19 67.0805 1228.21 62.7575C1252.67 53.9519 1264.4 35.2425 1253.36 20.3469C1253.47 20.3269 1253.56 20.3069 1253.67 20.287C1257.13 23.4418 1261.73 26.2971 1267.76 27.8446C1274.25 29.5219 1282.55 29.442 1288.11 26.9261C1293.67 24.4102 1295.18 19.2786 1290.31 16.3534C1294.57 20.1272 1303.75 21.9343 1311.37 20.4966C1313.12 20.1672 1314.72 19.658 1316.19 19.039C1317.63 26.0975 1322.37 32.9762 1330.01 38.6969C1342.65 48.1913 1362.57 54.4811 1383.65 56.2582C1399.11 57.556 1415.44 56.4678 1429.19 52.3545C1442.94 48.2413 1453.82 40.9432 1456.99 32.477C1460.17 24.0109 1454.97 14.5364 1442.85 9.07528C1449.8 10.3632 1456.85 11.671 1464.16 11.8408C1471.47 12.0105 1479.22 10.9023 1484.31 7.99704C1487.06 6.41962 1488.73 4.26314 1489.04 2.09668C1494.85 2.23645 1500.71 1.48767 1505.98 0.0400391L24.828 0.0401685C23.7093 0.289757 22.5907 0.53936 21.5261 0.82888C10.61 3.88389 1.37181 9.18522 1.11925 15.4949C0.668074 16.1538 0.343245 16.8427 0.162825 17.5615C-1.33473 23.4918 7.52452 28.7832 17.1597 31.4988L17.1597 31.4588Z" fill="#F5DBE5"/>
</g>
<defs>
<clipPath id="clip0_486_283">
<rect width="1506" height="208" fill="white" transform="translate(1506 208) rotate(180)"/>
</clipPath>
</defs>
</svg>
