<?xml version="1.0" encoding="UTF-8"?><svg id="Layer_1" xmlns="http://www.w3.org/2000/svg" width="42.34mm" height="42.32mm" viewBox="0 0 120.01 119.97"><defs><style>.cls-1{fill:#000;stroke-width:0px;}</style></defs><path class="cls-1" d="M59.7,119.97C26.43,119.76-.18,92.68,0,59.21.17,26.67,27.54-.18,60.35,0c33.27.19,59.81,27.22,59.66,60.76-.15,32.49-27.57,59.41-60.31,59.21ZM51.31,30.97c-9.16,1.37-18.34,2.6-27.46,4.17-3.51.6-5.59,2.94-4.92,6.81.66,3.83,3.41,4.54,6.72,4.13,1.31-.16,2.61-.46,3.91-.75,13.65-3.04,27.44-3.51,41.03-.47,8.49,1.9,16.65,5.32,24.9,8.21,4.45,1.56,8.66-.28,8.19-4.44-.25-2.24-2.55-5.01-4.67-6.15-14.82-7.94-30.92-10.59-47.7-11.5ZM43.62,52.56c-3.26.56-9.31,1.55-15.35,2.65-3.43.62-6.33,2.17-5.24,6.26,1,3.77,3.92,3.64,7.24,2.82,11.11-2.76,22.45-3.66,33.62-1.11,7.68,1.75,15.08,4.81,22.51,7.53,3.04,1.11,6.16,3.05,8.29-.74,2.26-4.04-.92-5.99-3.93-7.71-.29-.16-.62-.24-.91-.39-13.57-7.18-28.13-9.74-46.21-9.31ZM47.5,71.86c-3.82.54-11.23,1.38-18.53,2.82-1.5.29-2.56,2.8-3.83,4.29,1.69.99,3.33,2.11,5.11,2.91.61.27,1.58-.31,2.4-.46,16.7-3.09,32.99-2.92,48.46,5.48,1.59.86,5.39.39,6.31-.84,1.93-2.6-.57-4.27-2.9-5.61-10.34-5.94-21.56-8.33-37.01-8.59Z"/></svg>