<?xml version="1.0" encoding="UTF-8"?><svg id="Layer_1" xmlns="http://www.w3.org/2000/svg" width="36.13mm" height="42.21mm" viewBox="0 0 102.4 119.64"><defs><style>.cls-1{fill:#000;stroke-width:0px;}</style></defs><path class="cls-1" d="M74.29,38.83c0,15.55.63,29.72-.16,43.82-.94,16.81-13.26,31.02-28.43,35.54C23.65,124.76,2.42,108.13.24,86.34c-2.5-25.02,15.03-43.66,41.22-43.43,0,5.91.13,11.86-.13,17.79-.04.95-1.66,2.22-2.81,2.66-2.94,1.13-6.13,1.6-9.02,2.81-8.27,3.46-11.78,10.12-10.22,18.84,1.36,7.56,8.88,14.05,16.94,14.61,7.49.51,14.71-4.37,16.93-12.08,1.14-3.94,1.79-8.16,1.81-12.26.15-24,.05-47.99.05-71.99,0-.98.13-1.97.22-3.28h19.51c2.24,16.12,10.59,26.27,27.67,27.93v18.48c-9.87,2.02-18.19-2.57-28.11-7.58Z"/></svg>