<?xml version="1.0" encoding="UTF-8"?><svg id="Layer_1" xmlns="http://www.w3.org/2000/svg" width="39.87mm" height="27.17mm" viewBox="0 0 113.01 77.03"><defs><style>.cls-1{fill:#000;stroke-width:0px;}</style></defs><path class="cls-1" d="M56.24.07c13.16,0,26.31-.19,39.47.07,7.93.15,12.26,3.4,14.04,10.92,4.2,17.73,4.4,35.64.3,53.4-1.99,8.61-6.06,11.52-14.94,11.68-22.32.41-44.64.7-66.97.89-4.31.04-8.65-.48-12.95-1.02-6.88-.87-11.61-4.84-12.73-11.56C-.46,46.95-1.31,29.36,2.88,11.92,4.85,3.74,8.95.34,17.27.16c12.98-.27,25.98-.07,38.96-.07,0,0,0-.02,0-.02ZM45.29,52.73c10.25-5.31,19.77-10.25,30.3-15.7-10.81-5.68-20.28-10.66-30.3-15.93v31.63Z"/></svg>